<svg width="40" height="40" viewBox="0 0 40 40" fill="none" xmlns="http://www.w3.org/2000/svg">
<g clip-path="url(#clip0_4499_19829)">
<path d="M40 19.8889C39.7687 20.4347 39.5033 20.9654 39.2055 21.4779C37.7962 23.404 37.1871 25.8008 37.5057 28.1661C37.6247 28.7786 37.5132 29.4135 37.1927 29.9489C36.8721 30.4843 36.3651 30.8824 35.769 31.0668C33.6343 31.9859 31.9435 33.7032 31.0577 35.852C30.855 36.4467 30.4442 36.9482 29.901 37.264C29.3578 37.5797 28.7187 37.6885 28.1016 37.5702C25.6055 37.4234 23.1308 38.1054 21.0623 39.5102C20.6882 39.7139 20.269 39.8207 19.8429 39.8207C19.4169 39.8207 18.9977 39.7139 18.6235 39.5102C16.5072 38.0345 13.9268 37.378 11.3626 37.6626C10.8411 37.7559 10.3034 37.6577 9.84855 37.3861C9.39368 37.1145 9.05216 36.6879 8.88681 36.1846C7.81968 33.8576 5.98734 31.9665 3.69512 30.8266C3.30261 30.5921 2.97519 30.2628 2.74279 29.8691C2.5104 29.4753 2.38046 29.0295 2.36487 28.5725C2.49599 25.9603 1.79755 23.3735 0.369486 21.1822C0.192544 20.8329 0.100342 20.4468 0.100342 20.0552C0.100342 19.6636 0.192544 19.2775 0.369486 18.9282C1.86487 16.7689 2.5577 14.1544 2.32792 11.5379C2.21763 11.0223 2.29468 10.4843 2.54525 10.0205C2.79581 9.55658 3.20349 9.19717 3.69512 9.00673C5.99745 8.02498 7.83116 6.19127 8.8129 3.88895C8.98384 3.35561 9.34721 2.90502 9.8322 2.62495C10.3172 2.34488 10.8891 2.2554 11.4365 2.37393C13.929 2.5959 16.4204 1.93546 18.4757 0.507883C18.8787 0.311836 19.3209 0.209961 19.769 0.209961C20.2171 0.209961 20.6594 0.311836 21.0623 0.507883C23.2335 1.87542 25.7812 2.52205 28.3418 2.35546C28.8003 2.36413 29.2488 2.49116 29.6437 2.72424C30.0386 2.95732 30.3666 3.28852 30.5958 3.68571C31.827 6.02903 33.7668 7.92361 36.1385 9.09911C36.4686 9.29851 36.7517 9.56681 36.9685 9.88567C37.1853 10.2045 37.3308 10.5664 37.3949 10.9467C37.0924 13.7753 37.8566 16.6151 39.5381 18.9097C39.7217 19.2213 39.8763 19.5491 40 19.8889ZM30.3002 23.1961C29.3412 23.1989 28.3859 23.3168 27.4549 23.5471C26.3312 24.0217 25.2496 24.5903 24.2217 25.2469C21.7811 26.8417 19.2452 28.2855 16.6281 29.5702C16.0222 29.9334 15.3248 30.1153 14.6186 30.0943C13.9124 30.0733 13.2271 29.8502 12.6437 29.4516C12.0604 29.0531 11.6036 28.4956 11.3274 27.8453C11.0512 27.1951 10.9673 26.4792 11.0854 25.7827C11.2299 24.1024 11.4643 22.431 11.7875 20.7758C11.9538 19.4086 12.8591 19.3901 13.7829 19.6672C15.0947 20.0368 16.3325 20.628 17.6443 21.0344C18.7151 21.5274 19.9325 21.5977 21.0529 21.2311C22.1732 20.8645 23.1137 20.0881 23.6859 19.0575L14.448 16.4709L15.0392 14.6234L8.739 20.3508L11.0854 19.8335C10.5795 22.6581 10.2219 25.5073 10.0138 28.3693C9.90297 32.3601 12.0092 33.912 15.8152 32.6557C18.2114 31.6316 20.4756 30.3227 22.5589 28.7573C25.0531 27.076 27.4734 25.21 30.3002 23.1961ZM15.0023 34.4478C17.5519 36.1661 19.5658 36.2954 21.4503 34.9652C22.873 33.949 24.1847 32.7665 25.5519 31.6765C27.8614 29.8289 29.5612 27.1314 32.776 26.5402C32.6368 26.2558 32.4347 26.0068 32.185 25.812C31.9354 25.6172 31.6447 25.4817 31.335 25.4159C31.0252 25.35 30.7046 25.3555 30.3973 25.4318C30.09 25.5082 29.8041 25.6534 29.5612 25.8566C28.0277 26.8543 26.5312 27.8889 25.09 29.016C22.0415 31.3624 19.3071 34.1522 15.0023 34.4478ZM18.8083 3.03906C16 6.73421 16 6.86354 18.6235 9.65338C21.5612 6.4386 21.1547 5.57024 18.8083 3.09449V3.03906ZM18.2171 11.7966C19.6397 11.9259 21.7829 11.5379 23.1501 12.3878C24.5173 13.2377 24.8868 15.2885 25.5889 16.6003C26.09 15.7047 26.3038 14.6767 26.2014 13.6556C26.0989 12.6344 25.6852 11.6695 25.0161 10.8913C23.612 9.80119 19.806 10.4848 18.2171 11.7966Z" fill="white"/>
</g>
<defs>
<clipPath id="clip0_4499_19829">
<rect width="40" height="40" fill="white"/>
</clipPath>
</defs>
</svg>
