<svg width="40" height="40" viewBox="0 0 40 40" fill="none" xmlns="http://www.w3.org/2000/svg">
<g clip-path="url(#clip0_4499_19823)">
<path d="M0 34.6076C4.05275 31.5702 8.4189 28.9752 13.0239 26.867C20.1365 23.7134 26.9078 18.553 26.9078 11.727C26.9078 4.90108 24.0956 4.04102 22.43 4.04102C20.1365 4.04102 13.4744 6.77139 11.3584 18.3209C9.24232 29.8704 13.9386 35.6861 17.8976 35.9182C21.8567 36.1502 23.4539 35.2492 25.9249 30.0888C28.2594 28.3414 30.2389 27.8499 30.7713 25.3379C30.8005 25.1792 30.7962 25.0162 30.7587 24.8592C30.7213 24.7023 30.6515 24.5548 30.5539 24.4264C30.4562 24.2979 30.3329 24.1912 30.1917 24.1131C30.0504 24.035 29.8945 23.9872 29.7338 23.9728L28.6689 23.8362C28.9127 23.4184 29.2438 23.0581 29.6396 22.7801C30.0355 22.5021 30.4867 22.3128 30.9625 22.2253C32.5051 21.9932 33.5427 19.3038 33.5427 19.3038C33.5427 19.3038 28.0819 20.3823 24.8191 28.1912C21.5563 36.0001 15.2628 32.2048 14.7304 29.0513C13.3149 22.6901 14.2356 16.0319 17.3242 10.2936C20.9147 4.04102 28.3413 8.92839 20.9147 17.7475C13.6519 24.983 0.627986 27.6724 0 34.6076Z" fill="white"/>
<path d="M34.9214 20.1228L36.2866 22.4026C36.3536 22.5168 36.4453 22.6145 36.5549 22.6886C36.6646 22.7628 36.7894 22.8114 36.9203 22.8311C37.0512 22.8507 37.1848 22.8408 37.3114 22.8021C37.4379 22.7634 37.5543 22.6969 37.6518 22.6074L39.7132 20.7917C39.8654 20.6497 39.9646 20.46 39.9943 20.254C40.0241 20.0479 39.9827 19.8379 39.877 19.6586L38.5119 17.4197C38.4449 17.3055 38.3532 17.2078 38.2435 17.1337C38.1339 17.0596 38.0091 17.0109 37.8782 16.9913C37.7473 16.9716 37.6137 16.9815 37.4871 17.0202C37.3605 17.0589 37.2442 17.1254 37.1467 17.2149L35.0852 19.0579C34.9469 19.1941 34.8562 19.3713 34.8266 19.5632C34.7971 19.755 34.8304 19.9513 34.9214 20.1228Z" fill="white"/>
</g>
<defs>
<clipPath id="clip0_4499_19823">
<rect width="40" height="40" fill="white"/>
</clipPath>
</defs>
</svg>
