<svg width="40" height="40" viewBox="0 0 40 40" fill="none" xmlns="http://www.w3.org/2000/svg">
<g clip-path="url(#clip0_4499_19815)">
<path d="M3.81409 8.13281H12.9647L7.22755 31.8347C7.22755 31.8347 6.05768 36.1296 8.3814 37.5078C2.16345 34.5911 -0.945528 30.3604 0.256395 24.0623C1.45832 17.7642 3.81409 8.13281 3.81409 8.13281Z" fill="white"/>
<path d="M31.4743 8.13281H40.064L36.33 24.9758C36.33 24.9758 34.8877 32.9886 22.0833 37.5078C23.0524 36.9446 23.8926 36.1844 24.5496 35.2762C25.2066 34.368 25.6657 33.3321 25.8974 32.2354C27.0672 28.1488 31.4743 8.13281 31.4743 8.13281Z" fill="white"/>
<path d="M24.0385 1.06543C24.0385 1.06543 10.4968 9.70325 10.7853 23.309C10.6189 28.8809 12.2482 34.3588 15.4327 38.934C15.4327 38.934 3.20513 18.3411 26.9551 8.59748C26.0737 5.71287 24.0385 1.06543 24.0385 1.06543Z" fill="white"/>
<path d="M22.0834 12.2831L27.2437 9.59082C27.2437 9.59082 33.2854 25.4722 16.186 38.7895C16.1219 38.7895 31.0418 27.0427 22.0834 12.2831Z" fill="white"/>
</g>
<defs>
<clipPath id="clip0_4499_19815">
<rect width="40" height="40" fill="white"/>
</clipPath>
</defs>
</svg>
